<svg width="64" height="44" viewBox="0 0 64 44" fill="none" xmlns="http://www.w3.org/2000/svg">
<path d="M62.8492 26.082L61.0397 23.4433C60.9959 22.7612 60.7723 21.1182 59.6627 19.3782C57.6354 16.199 54.0501 14.9082 51.0333 14.273C51.0276 14.2718 51.0216 14.2709 51.0157 14.2697C50.6931 14.2095 50.3764 14.1583 50.0687 14.1148C44.8796 9.00029 40.4548 5.06229 38.2626 3.15642C36.9211 1.98904 35.2811 1.23717 33.5217 0.982291C32.7107 0.863541 32.0611 0.775415 31.4154 0.69679C30.9009 0.63354 30.4339 1.00004 30.3714 1.51404C30.3088 2.02804 30.6747 2.49541 31.1887 2.55804C31.8188 2.63479 32.4544 2.72104 33.2514 2.83779C34.6552 3.04117 35.9623 3.64042 37.0321 4.57129C39.0057 6.28717 42.8023 9.66266 47.3362 14.065H45.0528V13.7823C45.0528 12.27 43.8224 11.0397 42.3102 11.0397H41.3554C40.2769 11.0397 39.3996 11.9172 39.3996 12.9955V14.065H23.3277V2.23554C24.5247 2.18054 25.7229 2.17167 26.9261 2.21442C27.4438 2.23279 27.8779 1.82842 27.8963 1.31092C27.9148 0.79354 27.5103 0.35904 26.9928 0.340665C21.1102 0.130415 15.4753 1.06567 9.97769 2.89279C8.98344 3.22329 8.16632 3.92454 7.67706 4.86767C6.47306 7.18842 4.50419 12.5015 4.69857 22.1858C3.58907 23.1469 2.76131 24.1132 2.11306 25.1998C1.84781 25.6444 1.99319 26.2199 2.43794 26.4852C2.58844 26.5749 2.75394 26.6178 2.91731 26.6177C3.23656 26.6177 3.54781 26.4544 3.72331 26.1603C4.27769 25.231 5.00232 24.3954 5.98819 23.55H7.74556C9.61782 23.55 11.0453 21.876 10.7534 20.0293L10.4174 17.9044C10.1229 16.0419 8.75219 14.588 6.97206 14.1554C7.54606 9.83029 8.59919 7.16179 9.34132 5.73129C9.60457 5.22392 10.0406 4.84779 10.5689 4.67217C11.7779 4.27042 12.9766 3.92092 14.1689 3.61742C12.0846 7.35442 11.9876 11.2218 12.1563 13.3897C12.2672 14.8195 13.4673 15.9397 14.8884 15.9397H39.3997V17.3754C39.3997 18.4539 40.2772 19.3313 41.3556 19.3313H42.3103C43.8226 19.3313 45.0529 18.1009 45.0529 16.5887V15.9395C45.0529 15.9395 49.4723 15.9265 49.5157 15.932C49.6207 15.9453 49.7229 15.96 49.8257 15.9745C49.7982 17.8678 50.4536 19.623 51.7502 21.0943C53.5709 23.1604 56.6112 24.5333 59.6097 24.6729L61.3024 27.1414C61.8406 27.9275 62.1249 28.8458 62.1249 29.797V31.5345H58.2876C56.8958 28.9085 54.1348 27.1147 50.9616 27.1147C47.7883 27.1147 45.0273 28.9085 43.6356 31.5345H19.7646C18.3728 28.9085 15.6118 27.1147 12.4386 27.1147C9.26532 27.1147 6.50431 28.9085 5.11257 31.5345H2.09669C2.16406 30.9962 2.24331 30.4909 2.33606 30.0172C2.43556 29.509 2.10431 29.0165 1.59619 28.9169C1.08819 28.8173 0.595565 29.1487 0.49594 29.6568C0.33519 30.4777 0.211565 31.3768 0.121315 32.3734C0.121065 32.376 0.12094 32.3787 0.12069 32.3813C0.0728149 32.9109 0.0338149 33.4667 0.00481487 34.0557C-0.0473101 35.1125 0.32519 36.1162 1.05406 36.8818C1.78069 37.6452 2.76119 38.0657 3.81494 38.0657H4.59419C5.70644 41.3313 8.80157 43.6879 12.4388 43.6879C16.0761 43.6879 19.1713 41.3313 20.2836 38.0657H43.1171C44.2293 41.3313 47.3244 43.6879 50.9617 43.6879C54.5989 43.6879 57.6942 41.3313 58.8064 38.0657H59.7239C62.0818 38.0657 64.0002 36.1473 64.0002 33.7894V29.7969C63.9998 28.4665 63.6021 27.182 62.8492 26.082ZM8.56557 18.1973L8.90156 20.3222C9.01269 21.025 8.47431 21.6752 7.74569 21.6752H6.56569C6.53857 19.5795 6.61619 17.7104 6.76419 16.0464C7.70057 16.3669 8.40456 17.179 8.56557 18.1973ZM14.0257 13.2445C13.8516 11.0077 13.9903 6.75267 16.7861 3.02517C18.3469 2.71942 19.9001 2.50029 21.4527 2.36204V14.0648H14.8884C14.4403 14.0648 14.0613 13.7045 14.0257 13.2445ZM43.1779 16.5889C43.1779 17.0673 42.7887 17.4565 42.3103 17.4565H41.3556C41.3109 17.4565 41.2747 17.4202 41.2747 17.3757V12.9954C41.2747 12.9508 41.3111 12.9145 41.3556 12.9145H42.3103C42.7887 12.9145 43.1779 13.3038 43.1779 13.7822V16.5889ZM53.1568 19.8548C52.2409 18.8155 51.7554 17.6337 51.7037 16.3314C57.3221 17.7037 58.7176 21.0718 59.0623 22.7499C56.7677 22.4917 54.5301 21.4132 53.1568 19.8548ZM3.81469 36.191C3.27944 36.191 2.78119 35.9774 2.41194 35.5894C2.04056 35.1993 1.85069 34.6875 1.87731 34.1485C1.88981 33.8953 1.90469 33.6505 1.92081 33.4098H4.39557C4.23744 34.0482 4.15194 34.715 4.15194 35.4017C4.15194 35.668 4.16582 35.9312 4.19044 36.191H3.81469ZM12.4386 41.8133C8.90319 41.8133 6.02694 38.937 6.02694 35.4017C6.02694 31.8663 8.90319 28.99 12.4386 28.99C15.9741 28.99 18.8503 31.8663 18.8503 35.4017C18.8503 38.937 15.9739 41.8133 12.4386 41.8133ZM20.6867 36.191C20.7114 35.931 20.7252 35.6679 20.7252 35.4017C20.7252 34.715 20.6398 34.0483 20.4816 33.4098H42.9182C42.7601 34.0482 42.6746 34.715 42.6746 35.4017C42.6746 35.668 42.6884 35.9312 42.7131 36.191H20.6867ZM50.9613 41.8133C47.4259 41.8133 44.5497 38.937 44.5497 35.4017C44.5497 31.8663 47.4259 28.99 50.9613 28.99C54.4968 28.99 57.3731 31.8663 57.3731 35.4017C57.3731 38.937 54.4968 41.8133 50.9613 41.8133ZM59.7236 36.191H59.2096C59.2343 35.931 59.2481 35.6679 59.2481 35.4017C59.2481 34.715 59.1627 34.0483 59.0044 33.4098H62.1248V33.7898C62.1248 35.1138 61.0476 36.191 59.7236 36.191Z" fill="#40BB88"/>
<path d="M12.4384 31.8264C10.4672 31.8264 8.86328 33.4303 8.86328 35.4015C8.86328 37.3728 10.4672 38.9767 12.4384 38.9767C14.4098 38.9767 16.0137 37.3728 16.0137 35.4015C16.0137 33.4303 14.4098 31.8264 12.4384 31.8264ZM12.4384 37.1017C11.5009 37.1017 10.7383 36.3389 10.7383 35.4015C10.7383 34.4642 11.501 33.7014 12.4384 33.7014C13.3759 33.7014 14.1387 34.4642 14.1387 35.4015C14.1387 36.3389 13.3759 37.1017 12.4384 37.1017Z" fill="#40BB88"/>
<path d="M50.9618 31.8264C48.9906 31.8264 47.3867 33.4303 47.3867 35.4015C47.3867 37.3728 48.9906 38.9767 50.9618 38.9767C52.9332 38.9767 54.5371 37.3728 54.5371 35.4015C54.5371 33.4303 52.9332 31.8264 50.9618 31.8264ZM50.9618 37.1017C50.0245 37.1017 49.2617 36.3389 49.2617 35.4015C49.2617 34.4642 50.0245 33.7014 50.9618 33.7014C51.8993 33.7014 52.6621 34.4642 52.6621 35.4015C52.6621 36.3389 51.8993 37.1017 50.9618 37.1017Z" fill="#40BB88"/>
<path d="M26.1268 20.4043C26.6446 20.4043 27.0643 19.9845 27.0643 19.4668C27.0643 18.949 26.6446 18.5293 26.1268 18.5293H22.1113C21.5936 18.5293 21.1738 18.949 21.1738 19.4668C21.1738 19.9845 21.5936 20.4043 22.1113 20.4043H26.1268Z" fill="#40BB88"/>
</svg>
