<svg width="54" height="58" viewBox="0 0 54 58" fill="none" xmlns="http://www.w3.org/2000/svg">
<path d="M37.8672 25.2128C36.6689 25.2128 36.6674 27.0253 37.8672 27.0253C40.8628 27.0253 42.3984 24.6423 42.3984 21.5878C42.3984 15.8551 36.0547 15.8545 36.0547 20.6816C36.0547 21.8796 37.8672 21.8815 37.8672 20.6816C37.8672 18.2029 40.5859 18.3411 40.5859 21.5878C40.5859 22.6778 40.321 25.2128 37.8672 25.2128Z" fill="#40BB88"/>
<path d="M39.6797 43.5C37.9978 43.5019 36.3853 44.1709 35.1961 45.3601C34.0068 46.5494 33.3378 48.1618 33.3359 49.8437V57.0937C33.3359 58.2918 35.1484 58.2936 35.1484 57.0937V49.8437C35.1484 48.642 35.6258 47.4894 36.4756 46.6397C37.3254 45.7899 38.4779 45.3125 39.6797 45.3125C40.8814 45.3125 42.034 45.7899 42.8837 46.6397C43.7335 47.4894 44.2109 48.642 44.2109 49.8437V57.0937C44.2109 58.2918 46.0234 58.2936 46.0234 57.0937V49.8437C46.0215 48.1618 45.3525 46.5494 44.1633 45.3601C42.974 44.1709 41.3615 43.5019 39.6797 43.5Z" fill="#40BB88"/>
<path d="M52.5845 18.7513C53.6445 14.2453 53.4855 10.1639 52.1368 7.25874C51.101 5.02711 49.4311 3.67669 47.3957 3.40448C45.3986 -0.3501 40.9387 -0.363241 36.7604 0.401404C35.5823 0.616638 35.9065 2.40115 37.0868 2.18422C46.3395 0.49067 45.1773 5.11071 46.7711 5.16871C48.7865 5.24189 49.9075 6.76064 50.4929 8.0218C51.6543 10.5237 51.7735 14.2832 50.8202 18.3362C49.7336 22.9551 47.3508 27.7602 43.9148 32.2708C42.3536 31.5839 41.1324 30.6293 40.1943 29.3662C39.4806 28.4042 38.0239 29.4831 38.7392 30.4466C39.8772 31.9793 41.4114 33.1647 43.3034 33.9788V37.5167C41.6835 38.3509 36.1005 41.0471 30.6561 41.5908C33.3286 37.7635 32.1074 41.1196 32.4285 34.4376C32.4285 34.2999 32.3971 34.164 32.3367 34.0402C32.2763 33.9164 32.1885 33.808 32.0799 33.7233C31.9713 33.6385 31.8449 33.5796 31.7102 33.5511C31.5754 33.5225 31.436 33.525 31.3023 33.5584L27.2457 34.5727C26.737 34.7005 26.2013 34.6678 25.7121 34.4788C25.2228 34.2899 24.8041 33.9541 24.5134 33.5176C25.1009 33.0601 28.4205 32.4575 28.0123 29.3921C27.7434 27.3716 26.0486 26.2281 22.7575 28.0465C22.4389 27.153 22.4932 26.7019 22.0284 26.4159L19.944 25.1333C22.2112 22.1195 22.4589 22.1314 22.4589 21.5876V16.6106C24.893 17.5395 28.2314 17.2223 34.2401 17.2189C35.4383 17.2189 35.4398 15.4065 34.2401 15.4065H25.8437C25.6837 15.2939 18.6096 16.1675 17.9678 5.49688C20.4399 6.78183 24.0937 5.73738 29.6172 4.11384C29.7093 4.0572 31.1322 3.92206 30.8089 2.81972C30.4842 1.7124 29.2178 2.37238 29.1061 2.37498C24.6787 3.67624 19.234 5.47967 17.8547 3.05319C17.4743 2.2344 16.211 2.43842 16.1423 3.3987C15.8463 7.51645 17.061 13.099 20.6473 15.643V21.2772C16.7366 26.54 16.5898 25.0186 20.7847 27.7786L21.3578 29.6866C21.3983 29.8215 21.4696 29.945 21.5661 30.0475C21.6627 30.15 21.7818 30.2285 21.9139 30.277C22.0461 30.3254 22.1878 30.3424 22.3277 30.3265C22.4676 30.3107 22.6018 30.2625 22.7199 30.1857C24.7552 28.8621 25.5784 28.8916 25.838 28.9654C26.2555 29.0845 26.5252 30.3671 25.6454 30.9263L22.921 32.2868C21.3125 33.0903 23.9908 37.2541 27.685 36.3309L30.6156 35.5982V38.6348C26.6646 43.3782 23.3657 50.4549 23.3657 57.0937C23.3657 58.2917 25.1782 58.2935 25.1782 57.0937C25.1782 51.6562 27.4585 46.7253 29.4202 43.4893C35.4755 43.2935 41.8427 40.3014 43.9428 39.228C52.548 51.1012 47.891 58 50.5534 58C50.7937 58 51.0243 57.9045 51.1942 57.7346C51.3642 57.5646 51.4596 57.3341 51.4596 57.0938C51.4596 50.4555 50.3923 44.8895 45.1159 37.7621V33.6811C48.834 28.8798 51.4148 23.7236 52.5845 18.7513Z" fill="#40BB88"/>
<path d="M33.3374 2.71911C34.5356 2.71911 34.5373 0.906616 33.3374 0.906616C32.1375 0.906616 32.1375 2.71911 33.3374 2.71911Z" fill="#40BB88"/>
<path d="M18.8367 29.0001H9.77427C8.57598 29.0001 8.57451 30.8126 9.77427 30.8126H18.8367C20.0351 30.8126 20.0366 29.0001 18.8367 29.0001Z" fill="#40BB88"/>
<path d="M18.8367 32.625H7.05551C5.85723 32.625 5.85576 34.4375 7.05551 34.4375H18.8367C20.0351 34.4375 20.0366 32.625 18.8367 32.625Z" fill="#40BB88"/>
<path d="M10.317 36.7025C8.89925 39.1532 5.14943 38.0451 5.24425 35.2857C5.24062 35.2744 5.28808 34.538 4.56456 34.3525C1.85353 33.6571 1.85251 29.7809 4.56456 29.0849C4.76424 29.0337 4.94049 28.9159 5.06422 28.7511C5.18795 28.5862 5.25177 28.3841 5.24515 28.178L5.24425 28.1518C5.14943 25.3945 8.89506 24.2805 10.3159 26.735C10.4363 26.9431 10.6344 27.0947 10.8666 27.1567C11.0989 27.2187 11.3462 27.1859 11.5542 27.0655C13.0577 26.1955 10.5158 23.5626 7.9614 23.5626C6.85416 23.564 5.78563 23.9701 4.95704 24.7046C4.12844 25.439 3.59696 26.451 3.46268 27.5501C-0.1998 29.1102 -0.197194 34.3283 3.46268 35.8876C3.97822 40.1809 9.70501 41.3802 11.8859 37.6103C12.4858 36.5729 10.9175 35.6638 10.317 36.7025Z" fill="#40BB88"/>
</svg>
