<svg width="24" height="24" viewBox="0 0 24 24" fill="none" xmlns="http://www.w3.org/2000/svg">
<path d="M11.5 0C6.81313 0 3 3.74238 3 8.34229C3 14.1239 11.5084 24 11.5084 24C11.5084 24 20 13.8396 20 8.34229C20 3.74238 16.187 0 11.5 0ZM14.0646 10.7849C13.3575 11.4788 12.4288 11.8258 11.5 11.8258C10.5713 11.8258 9.64239 11.4788 8.93552 10.7849C7.52134 9.39712 7.52134 7.13892 8.93552 5.75098C9.6203 5.07861 10.5312 4.7083 11.5 4.7083C12.4688 4.7083 13.3796 5.07876 14.0646 5.75098C15.4788 7.13892 15.4788 9.39712 14.0646 10.7849Z" fill="currentColor"/>
</svg>
