<svg width="24" height="24" viewBox="0 0 24 24" fill="none" xmlns="http://www.w3.org/2000/svg">
<g clip-path="url(#clip0)">
<path d="M23.7885 4.76819L16.5098 12L23.7885 19.2318C23.92 18.9568 23.9999 18.6528 23.9999 18.3281V5.67189C23.9999 5.34719 23.92 5.0432 23.7885 4.76819Z" fill="currentColor"/>
<path d="M21.89 3.5625H2.10878C1.78408 3.5625 1.48009 3.64233 1.20508 3.77391L10.508 13.03C11.3306 13.8526 12.6682 13.8526 13.4908 13.03L22.7937 3.77391C22.5187 3.64233 22.2147 3.5625 21.89 3.5625Z" fill="currentColor"/>
<path d="M0.211406 4.76819C0.0798281 5.0432 0 5.34719 0 5.67189V18.3281C0 18.6528 0.0798281 18.9569 0.211406 19.2318L7.49011 12L0.211406 4.76819Z" fill="currentColor"/>
<path d="M15.515 12.9943L14.485 14.0242C13.1145 15.3948 10.8843 15.3948 9.51372 14.0242L8.48378 12.9943L1.20508 20.2261C1.48009 20.3577 1.78408 20.4375 2.10878 20.4375H21.89C22.2147 20.4375 22.5187 20.3577 22.7937 20.2261L15.515 12.9943Z" fill="currentColor"/>
</g>
<defs>
<clipPath id="clip0">
<rect width="24" height="24" fill="white"/>
</clipPath>
</defs>
</svg>
